#!OML:ASF X:\für Bonn\!DataBase\2005_08_10_Bjorn_Final\c3d\bjorn.ASF
:FULLY-SPECIFIED
:DEGREES
106
root 2.49904 12.0875 -0.0166388 321.06 -259.732 -398.108
lowerback 42.5785 -4.54924 5.09343
upperback 21.5106 0.765898 4.73596
thorax 3.9058 2.10404 2.35306
lowerneck -5.88686 -10.7576 -0.288663
upperneck 4.66658 -14.6403 5.01371
head 2.945 -7.13476 0.982812
rclavicle -1.08139e-013 -8.66701e-014
rhumerus 18.6653 -17.3606 -73.8234
rradius 15.7266
rwrist 13.9633
rhand -24.3719 16.9204
rfingers 7.12502
rthumb 2.11815 -13.0489
lclavicle -1.08139e-013 -8.66701e-014
lhumerus 36.4041 -29.7142 47.7254
lradius 59.0986
lwrist -10.276
lhand -29.6857 -11.9854
lfingers 7.12502
lthumb -3.01396 17.973
rfemur -68.0289 -24.2827 4.56036
rtibia 122.744
rfoot -28.812 32.7955
rtoes -10.3478
lfemur -72.6676 17.5501 -28.5325
ltibia 120.187
lfoot -25.7172 -13.4885
ltoes -17.2516
107
root 2.52052 11.9595 -0.0365196 320.443 -259.719 -398.484
lowerback 42.8235 -4.66665 5.08167
upperback 21.6153 0.689399 4.80194
thorax 3.96228 2.07637 2.46133
lowerneck -5.96737 -10.771 -0.299249
upperneck 4.65863 -14.658 4.99776
head 2.957 -7.14352 0.973953
rclavicle -6.36111e-015 2.14687e-014
rhumerus 18.2532 -17.4521 -73.7802
rradius 15.9289
rwrist 14.0291
rhand -25.0872 17.3235
rfingers 7.12502
rthumb 1.42732 -12.6515
lclavicle -6.36111e-015 2.14687e-014
lhumerus 36.6858 -29.5404 47.1386
lradius 59.0428
lwrist -10.1541
lhand -29.5201 -11.8393
lfingers 7.12502
lthumb -2.85396 18.1213
rfemur -68.4241 -25.2965 4.04975
rtibia 123.891
rfoot -28.6681 33.6437
rtoes -10.5339
lfemur -73.1525 17.9133 -28.608
ltibia 121.376
lfoot -25.6733 -13.8509
ltoes -17.0596
108
root 2.54361 11.8308 -0.0558852 319.842 -259.736 -398.878
lowerback 43.0217 -4.77416 5.08496
upperback 21.7009 0.616149 4.85001
thorax 4.01059 2.04959 2.54086
lowerneck -6.01891 -10.7775 -0.271517
upperneck 4.67435 -14.6685 4.96535
head 2.96674 -7.14809 0.955602
rclavicle -2.8625e-014 9.54166e-015
rhumerus 17.8341 -17.6346 -73.8055
rradius 16.1085
rwrist 14.2658
rhand -25.8834 17.9218
rfingers 7.12502
rthumb 0.658328 -12.057
lclavicle -2.8625e-014 9.54166e-015
lhumerus 36.9326 -29.3923 46.5602
lradius 58.955
lwrist -10.0411
lhand -29.3947 -11.7088
lfingers 7.12502
lthumb -2.73286 18.2535
rfemur -68.8601 -26.3404 3.56136
rtibia 125.031
rfoot -28.5028 34.532
rtoes -10.7315
lfemur -73.6933 18.3013 -28.6868
ltibia 122.579
lfoot -25.7049 -14.0938
ltoes -17.1859
109
root 2.56523 11.7025 -0.0748922 319.271 -259.727 -399.301
lowerback 43.149 -4.87288 5.09112
upperback 21.7655 0.538898 4.89293
thorax 4.05368 2.01803 2.6134
lowerneck -5.98268 -10.7864 -0.262532
upperneck 4.65487 -14.6793 4.96599
head 2.95298 -7.15439 0.956633
rclavicle -9.54166e-015 3.4191e-014
rhumerus 17.3164 -17.6148 -73.7169
rradius 16.3889
rwrist 14.2985
rhand -26.7466 18.4866
rfingers 7.12502
rthumb -0.175378 -11.4931
lclavicle -9.54166e-015 3.4191e-014
lhumerus 37.1711 -29.2784 46.0045
lradius 58.8205
lwrist -9.91961
lhand -29.1814 -11.6565
lfingers 7.12502
lthumb -2.52687 18.3083
rfemur -69.3732 -27.4422 3.05535
rtibia 126.155
rfoot -28.2847 35.4444
rtoes -10.8401
lfemur -74.308 18.5973 -28.8091
ltibia 123.762
lfoot -25.7226 -14.2247
ltoes -17.5404
110
root 2.58866 11.5725 -0.0925032 318.676 -259.752 -399.756
lowerback 43.245 -4.94729 5.06473
upperback 21.8346 0.47246 4.94311
thorax 4.10914 1.98683 2.7066
lowerneck -5.89031 -10.7773 -0.246544
upperneck 4.58223 -14.6632 4.95819
head 2.90857 -7.14991 0.960477
rclavicle -7.63333e-014 -7.95139e-016
rhumerus 16.8333 -17.645 -73.6887
rradius 16.6524
rwrist 14.4454
rhand -27.7383 19.1922
rfingers 7.12502
rthumb -1.13314 -10.7845
lclavicle -7.63333e-014 -7.95139e-016
lhumerus 37.306 -29.1163 45.5935
lradius 58.6615
lwrist -9.93136
lhand -29.0014 -11.6414
lfingers 7.12502
lthumb -2.35303 18.3254
rfemur -69.9016 -28.5909 2.57088
rtibia 127.288
rfoot -28.1906 36.3328
rtoes -11.3062
lfemur -74.9214 18.9482 -28.8979
ltibia 124.946
lfoot -25.75 -14.4168
ltoes -17.6978
111
root 2.61148 11.4427 -0.110319 318.199 -259.78 -400.089
lowerback 43.3226 -5.04205 5.10785
upperback 21.9082 0.40475 4.9643
thorax 4.17718 1.96515 2.73503
lowerneck -5.80608 -10.7632 -0.0940349
upperneck 4.50221 -14.6459 4.87023
head 2.84407 -7.14524 0.91883
rclavicle 9.54166e-014 0
rhumerus 16.3517 -17.7319 -73.6977
rradius 16.9312
rwrist 14.6105
rhand -28.7348 19.9037
rfingers 7.12502
rthumb -2.09562 -10.0658
lclavicle 9.54166e-014 0
lhumerus 37.4245 -28.953 45.2464
lradius 58.4946
lwrist -10.0499
lhand -28.7494 -11.6608
lfingers 7.12502
lthumb -2.10972 18.3085
rfemur -70.4081 -29.8339 2.08611
rtibia 128.401
rfoot -28.1512 37.2348
rtoes -11.7506
lfemur -75.5385 19.3013 -28.9645
ltibia 126.124
lfoot -25.8059 -14.5633
ltoes -18.1517
